<svg width="40" height="31" viewBox="0 0 40 31" fill="none" xmlns="http://www.w3.org/2000/svg">
<path d="M1.39408 9.75613C1.39408 9.75613 2.17698 8.22045 4.49556 8.03978C6.81414 7.88922 7.86804 9.30446 7.86804 9.30446C4.074 11.894 6.39258 18.5487 8.59071 23.1256H6.66358C3.17065 19.1208 -0.804061 13.3695 1.39408 9.75613Z" fill="white"/>
<path d="M19.9727 25.4442H33.4024C33.4024 25.4442 33.1013 26.197 33.1013 27.8531C33.1013 29.3286 33.4325 30.1115 33.4325 30.1115H19.9426H6.45264C6.45264 30.1115 6.78386 29.3286 6.78386 27.8531C6.78386 26.197 6.48274 25.4442 6.48274 25.4442H19.9727Z" fill="white"/>
<path d="M22.1407 2.16802C22.1407 3.37248 21.1772 4.33605 19.9727 4.33605C18.7683 4.33605 17.8047 3.37248 17.8047 2.16802C17.8047 0.963567 18.7683 0 19.9727 0C21.1772 0 22.1407 0.963567 22.1407 2.16802Z" fill="white"/>
<path d="M29.5183 6.26319C29.5183 6.26319 28.5246 4.60706 25.935 4.60706C23.3454 4.60706 22.2915 6.26319 22.2915 6.26319C25.1521 11.2015 23.2551 18.639 21.6592 23.1256H23.4358C27.2599 18.4583 32.5595 10.5691 29.5183 6.26319Z" fill="white"/>
<path d="M38.5214 9.75613C38.5214 9.75613 37.7385 8.22045 35.4199 8.03978C33.1013 7.88922 32.0474 9.30446 32.0474 9.30446C35.8414 11.894 33.5228 18.5487 31.3247 23.1256H33.2518C36.7749 19.1208 40.7195 13.3695 38.5214 9.75613Z" fill="white"/>
<path d="M10.4273 6.26319C10.4273 6.26319 11.421 4.60706 14.0105 4.60706C16.6001 4.60706 17.654 6.26319 17.654 6.26319C14.7934 11.2015 16.6905 18.639 18.2864 23.1256H16.4797C12.6856 18.4583 7.35591 10.5691 10.4273 6.26319Z" fill="white"/>
</svg>